<svg id="Layer_1" data-name="Layer 1" xmlns="http://www.w3.org/2000/svg" xmlns:xlink="http://www.w3.org/1999/xlink" viewBox="0 0 748.26 200"><defs><style>.cls-1{fill:none;}.cls-2{clip-path:url(#clip-path);}</style><clipPath id="clip-path" transform="translate(0 0)"><rect class="cls-1" width="748.26" height="200"/></clipPath></defs><title>Vector Smart Object</title><polygon points="149.62 3.85 100 134.23 92.69 166.15 85.39 134.23 35.77 3.85 0 3.85 74.62 196.16 110.77 196.16 185.39 3.85 149.62 3.85"/><g class="cls-2"><path d="M391.15,14.9,425,3.84v25C440,13.08,465.77,0,492.3,0c40.38,0,63.46,23.85,63.46,63.46V196.15H521.92V69.62c0-25.77-14.23-39.62-39.23-39.62a54.9,54.9,0,0,0-26.42,6.78C436.47,47.46,425,69,425,91.5V196.15H391.15Z" transform="translate(0 0)"/><path d="M583.64,14.9,617.49,3.84v25C632.49,13.08,658.26,0,684.8,0c40.38,0,63.46,23.85,63.46,63.46V196.15H714.41V69.62c0-25.77-14.23-39.62-39.23-39.62a54.89,54.89,0,0,0-26.42,6.78C629,47.46,617.49,69,617.49,91.5V196.15H583.64Z" transform="translate(0 0)"/><path d="M277.69,30.77c31.92,0,55.77,18.46,58.46,50.77H218.46c5-31.92,28.46-50.77,59.23-50.77m.39,138.46c-35.39,0-58.85-21.92-60-58.46h150V97.69q0-45.58-25.39-71.54C325.77,8.85,304.23,0,277.69,0c-25.77,0-48.08,9.23-66.54,28.08C193.08,46.92,183.85,70.77,183.85,100c0,30.38,8.46,54.61,25,72.69,16.92,18.08,40,27.31,68.85,27.31,43,0,72.76-22.32,85.57-59.93H330.6c-9.34,17.9-27.54,29.16-52.52,29.16" transform="translate(0 0)"/></g></svg>